<?xml version="1.0" standalone="no"?>
<!DOCTYPE svg PUBLIC "-//W3C//DTD SVG 20010904//EN"
 "http://www.w3.org/TR/2001/REC-SVG-20010904/DTD/svg10.dtd">
<svg version="1.0" xmlns="http://www.w3.org/2000/svg"
 width="256.000000pt" height="256.000000pt" viewBox="0 0 256.000000 256.000000"
 preserveAspectRatio="xMidYMid meet">
<metadata>
Created by potrace 1.11, written by Peter Selinger 2001-2013
</metadata>
<g transform="translate(0.000000,256.000000) scale(0.100000,-0.100000)"
fill="#000000" stroke="none">
<path d="M741 1962 c-19 -10 -43 -34 -53 -53 -17 -32 -18 -67 -16 -636 3 -590
3 -602 24 -629 11 -15 33 -37 48 -48 27 -20 40 -21 542 -24 l514 -3 0 90 0 90
48 14 47 14 3 96 3 96 -27 7 -27 7 27 14 c25 13 26 16 26 104 0 88 0 90 -27
100 l-28 11 28 10 c27 10 27 10 27 103 0 93 0 93 -27 103 l-28 10 28 11 c27
10 27 12 27 100 0 88 -1 91 -26 104 l-27 14 27 7 27 7 -3 96 -3 96 -47 14
c-47 13 -48 15 -48 53 l0 40 -513 0 c-477 0 -515 -1 -546 -18z m1098 -103 c31
-11 31 -11 31 -84 0 -67 -2 -73 -22 -79 -47 -12 -48 -10 -48 84 0 50 2 90 4
90 1 0 17 -5 35 -11z m-448 -336 c71 -165 99 -220 117 -228 41 -18 23 -25 -68
-25 -53 0 -90 4 -90 10 0 6 11 10 23 10 13 0 26 3 30 6 3 3 -4 32 -16 65 l-21
59 -97 0 -96 0 -22 -57 c-23 -59 -19 -72 22 -73 9 0 17 -4 17 -10 0 -6 -33
-10 -80 -10 -47 0 -80 4 -80 10 0 6 9 10 20 10 23 0 45 41 150 283 40 92 78
167 85 167 7 0 55 -98 106 -217z m453 107 c25 -9 26 -14 26 -80 0 -66 -1 -71
-26 -80 -14 -6 -30 -10 -35 -10 -5 0 -9 41 -9 90 0 50 4 90 9 90 5 0 21 -4 35
-10z m26 -305 l0 -72 -35 -10 -35 -11 0 93 0 93 35 -11 35 -10 0 -72z m-26
-145 c25 -9 26 -14 26 -80 0 -66 -1 -71 -26 -80 -14 -6 -30 -10 -35 -10 -5 0
-9 41 -9 90 0 50 4 90 9 90 5 0 21 -4 35 -10z m4 -226 c20 -6 22 -12 22 -79 0
-73 0 -73 -31 -84 -18 -6 -34 -11 -35 -11 -2 0 -4 41 -4 90 0 94 1 96 48 84z
m-76 -217 l0 -68 -483 1 -484 0 -23 26 c-27 31 -23 69 10 97 19 16 55 17 500
15 l480 -3 0 -68z"/>
<path d="M1228 1547 c-20 -50 -36 -93 -34 -95 2 -1 37 -2 79 0 l75 3 -35 85
c-19 47 -38 88 -41 92 -4 4 -24 -35 -44 -85z"/>
<path d="M813 773 c-48 -19 29 -23 427 -23 400 0 475 4 424 24 -19 7 -833 7
-851 -1z"/>
<path d="M803 708 c6 -19 868 -19 874 0 4 9 -88 12 -437 12 -349 0 -441 -3
-437 -12z"/>
</g>
</svg>
